<svg id="visual" viewBox="0 0 960 540" width="960" height="540" xmlns="http://www.w3.org/2000/svg" xmlns:xlink="http://www.w3.org/1999/xlink" version="1.1"><path d="M0 77L13.3 74.2C26.7 71.3 53.3 65.7 80 63.8C106.7 62 133.3 64 160 69.5C186.7 75 213.3 84 240 86.7C266.7 89.3 293.3 85.7 320 78.5C346.7 71.3 373.3 60.7 400 63.3C426.7 66 453.3 82 480 83.7C506.7 85.3 533.3 72.7 560 68.2C586.7 63.7 613.3 67.3 640 66.5C666.7 65.7 693.3 60.3 720 56.8C746.7 53.3 773.3 51.7 800 57C826.7 62.3 853.3 74.7 880 73.7C906.7 72.7 933.3 58.3 946.7 51.2L960 44L960 0L946.7 0C933.3 0 906.7 0 880 0C853.3 0 826.7 0 800 0C773.3 0 746.7 0 720 0C693.3 0 666.7 0 640 0C613.3 0 586.7 0 560 0C533.3 0 506.7 0 480 0C453.3 0 426.7 0 400 0C373.3 0 346.7 0 320 0C293.3 0 266.7 0 240 0C213.3 0 186.7 0 160 0C133.3 0 106.7 0 80 0C53.3 0 26.7 0 13.3 0L0 0Z" fill="#6198ff"></path><path d="M0 114L13.3 116.8C26.7 119.7 53.3 125.3 80 128.2C106.7 131 133.3 131 160 131.8C186.7 132.7 213.3 134.3 240 137.8C266.7 141.3 293.3 146.7 320 144C346.7 141.3 373.3 130.7 400 128C426.7 125.3 453.3 130.7 480 129.7C506.7 128.7 533.3 121.3 560 116.8C586.7 112.3 613.3 110.7 640 109C666.7 107.3 693.3 105.7 720 103C746.7 100.3 773.3 96.7 800 101.2C826.7 105.7 853.3 118.3 880 117.3C906.7 116.3 933.3 101.7 946.7 94.3L960 87L960 42L946.7 49.2C933.3 56.3 906.7 70.7 880 71.7C853.3 72.7 826.7 60.3 800 55C773.3 49.7 746.7 51.3 720 54.8C693.3 58.3 666.7 63.7 640 64.5C613.3 65.3 586.7 61.7 560 66.2C533.3 70.7 506.7 83.3 480 81.7C453.3 80 426.7 64 400 61.3C373.3 58.7 346.7 69.3 320 76.5C293.3 83.7 266.7 87.3 240 84.7C213.3 82 186.7 73 160 67.5C133.3 62 106.7 60 80 61.8C53.3 63.7 26.7 69.3 13.3 72.2L0 75Z" fill="#4385ff"></path><path d="M0 195L13.3 191.5C26.7 188 53.3 181 80 182.8C106.7 184.7 133.3 195.3 160 195.3C186.7 195.3 213.3 184.7 240 185.7C266.7 186.7 293.3 199.3 320 199.3C346.7 199.3 373.3 186.7 400 181.2C426.7 175.7 453.3 177.3 480 177.3C506.7 177.3 533.3 175.7 560 170.3C586.7 165 613.3 156 640 152.3C666.7 148.7 693.3 150.3 720 152.2C746.7 154 773.3 156 800 162.3C826.7 168.7 853.3 179.3 880 180.2C906.7 181 933.3 172 946.7 167.5L960 163L960 85L946.7 92.3C933.3 99.7 906.7 114.3 880 115.3C853.3 116.3 826.7 103.7 800 99.2C773.3 94.7 746.7 98.3 720 101C693.3 103.7 666.7 105.3 640 107C613.3 108.7 586.7 110.3 560 114.8C533.3 119.3 506.7 126.7 480 127.7C453.3 128.7 426.7 123.3 400 126C373.3 128.7 346.7 139.3 320 142C293.3 144.7 266.7 139.3 240 135.8C213.3 132.3 186.7 130.7 160 129.8C133.3 129 106.7 129 80 126.2C53.3 123.3 26.7 117.7 13.3 114.8L0 112Z" fill="#2071ff"></path><path d="M0 244L13.3 244C26.7 244 53.3 244 80 253C106.7 262 133.3 280 160 279.2C186.7 278.3 213.3 258.7 240 253.3C266.7 248 293.3 257 320 259.7C346.7 262.3 373.3 258.7 400 256.8C426.7 255 453.3 255 480 259.5C506.7 264 533.3 273 560 273.8C586.7 274.7 613.3 267.3 640 257.3C666.7 247.3 693.3 234.7 720 229.3C746.7 224 773.3 226 800 228.8C826.7 231.7 853.3 235.3 880 238.8C906.7 242.3 933.3 245.7 946.7 247.3L960 249L960 161L946.7 165.5C933.3 170 906.7 179 880 178.2C853.3 177.3 826.7 166.7 800 160.3C773.3 154 746.7 152 720 150.2C693.3 148.3 666.7 146.7 640 150.3C613.3 154 586.7 163 560 168.3C533.3 173.7 506.7 175.3 480 175.3C453.3 175.3 426.7 173.7 400 179.2C373.3 184.7 346.7 197.3 320 197.3C293.3 197.3 266.7 184.7 240 183.7C213.3 182.7 186.7 193.3 160 193.3C133.3 193.3 106.7 182.7 80 180.8C53.3 179 26.7 186 13.3 189.5L0 193Z" fill="#0061f1"></path><path d="M0 438L13.3 439C26.7 440 53.3 442 80 447.5C106.7 453 133.3 462 160 448.5C186.7 435 213.3 399 240 393.5C266.7 388 293.3 413 320 417.5C346.7 422 373.3 406 400 390.8C426.7 375.7 453.3 361.3 480 370.3C506.7 379.3 533.3 411.7 560 427.8C586.7 444 613.3 444 640 427.8C666.7 411.7 693.3 379.3 720 370.3C746.7 361.3 773.3 375.7 800 390C826.7 404.3 853.3 418.7 880 419.5C906.7 420.3 933.3 407.7 946.7 401.3L960 395L960 247L946.7 245.3C933.3 243.7 906.7 240.3 880 236.8C853.3 233.3 826.7 229.7 800 226.8C773.3 224 746.7 222 720 227.3C693.3 232.7 666.7 245.3 640 255.3C613.3 265.3 586.7 272.7 560 271.8C533.3 271 506.7 262 480 257.5C453.3 253 426.7 253 400 254.8C373.3 256.7 346.7 260.3 320 257.7C293.3 255 266.7 246 240 251.3C213.3 256.7 186.7 276.3 160 277.2C133.3 278 106.7 260 80 251C53.3 242 26.7 242 13.3 242L0 242Z" fill="#0056d6"></path><path d="M0 541L13.3 541C26.7 541 53.3 541 80 541C106.7 541 133.3 541 160 541C186.7 541 213.3 541 240 541C266.7 541 293.3 541 320 541C346.7 541 373.3 541 400 541C426.7 541 453.3 541 480 541C506.7 541 533.3 541 560 541C586.7 541 613.3 541 640 541C666.7 541 693.3 541 720 541C746.7 541 773.3 541 800 541C826.7 541 853.3 541 880 541C906.7 541 933.3 541 946.7 541L960 541L960 393L946.7 399.3C933.3 405.7 906.7 418.3 880 417.5C853.3 416.7 826.7 402.3 800 388C773.3 373.7 746.7 359.3 720 368.3C693.3 377.3 666.7 409.7 640 425.8C613.3 442 586.7 442 560 425.8C533.3 409.7 506.7 377.3 480 368.3C453.3 359.3 426.7 373.7 400 388.8C373.3 404 346.7 420 320 415.5C293.3 411 266.7 386 240 391.5C213.3 397 186.7 433 160 446.5C133.3 460 106.7 451 80 445.5C53.3 440 26.7 438 13.3 437L0 436Z" fill="#004cbb"></path></svg>